<?xml version="1.0" encoding="UTF-8" ?>
<svg version="1.1" width="200" height="100" xmlns="http://www.w3.org/2000/svg" shape-rendering="crispEdges">
<rect x="20" y="0" width="20" height="20" fill="#3544A1" />
<rect x="40" y="0" width="10" height="10" fill="#5B6EE1" />
<rect x="50" y="0" width="10" height="10" fill="#3544A1" />
<rect x="60" y="0" width="10" height="10" fill="#5B6EE1" />
<rect x="70" y="0" width="10" height="10" fill="#3544A1" />
<rect x="80" y="0" width="100" height="10" fill="#5B6EE1" />
<rect x="10" y="10" width="10" height="80" fill="#3544A1" />
<rect x="40" y="10" width="10" height="10" fill="#3544A1" />
<rect x="50" y="10" width="10" height="10" fill="#5B6EE1" />
<rect x="60" y="10" width="10" height="10" fill="#3544A1" />
<rect x="70" y="10" width="10" height="10" fill="#5B6EE1" />
<rect x="80" y="10" width="10" height="10" fill="#3544A1" />
<rect x="90" y="10" width="10" height="10" fill="#5B6EE1" />
<rect x="100" y="10" width="10" height="10" fill="#3544A1" />
<rect x="110" y="10" width="10" height="90" fill="#5B6EE1" />
<rect x="120" y="10" width="10" height="10" fill="#3544A1" />
<rect x="130" y="10" width="60" height="80" fill="#5B6EE1" />
<rect x="0" y="20" width="10" height="60" fill="#3544A1" />
<rect x="20" y="20" width="10" height="10" fill="#5B6EE1" />
<rect x="30" y="20" width="10" height="80" fill="#3544A1" />
<rect x="40" y="20" width="10" height="10" fill="#5B6EE1" />
<rect x="50" y="20" width="10" height="30" fill="#3544A1" />
<rect x="60" y="20" width="10" height="10" fill="#5B6EE1" />
<rect x="70" y="20" width="10" height="10" fill="#3544A1" />
<rect x="80" y="20" width="10" height="10" fill="#5B6EE1" />
<rect x="90" y="20" width="10" height="10" fill="#3544A1" />
<rect x="100" y="20" width="10" height="10" fill="#5B6EE1" />
<rect x="120" y="20" width="10" height="10" fill="#5B6EE1" />
<rect x="190" y="20" width="10" height="60" fill="#5B6EE1" />
<rect x="20" y="30" width="10" height="30" fill="#3544A1" />
<rect x="40" y="30" width="10" height="10" fill="#3544A1" />
<rect x="60" y="30" width="10" height="10" fill="#3544A1" />
<rect x="70" y="30" width="10" height="10" fill="#5B6EE1" />
<rect x="80" y="30" width="10" height="10" fill="#3544A1" />
<rect x="90" y="30" width="10" height="30" fill="#5B6EE1" />
<rect x="100" y="30" width="10" height="10" fill="#3544A1" />
<rect x="120" y="30" width="10" height="10" fill="#3544A1" />
<rect x="40" y="40" width="10" height="10" fill="#5B6EE1" />
<rect x="60" y="40" width="10" height="10" fill="#5B6EE1" />
<rect x="70" y="40" width="10" height="10" fill="#3544A1" />
<rect x="80" y="40" width="10" height="10" fill="#5B6EE1" />
<rect x="100" y="40" width="10" height="10" fill="#5B6EE1" />
<rect x="120" y="40" width="10" height="30" fill="#5B6EE1" />
<rect x="40" y="50" width="10" height="10" fill="#3544A1" />
<rect x="50" y="50" width="10" height="10" fill="#5B6EE1" />
<rect x="60" y="50" width="10" height="10" fill="#3544A1" />
<rect x="70" y="50" width="10" height="10" fill="#5B6EE1" />
<rect x="80" y="50" width="10" height="10" fill="#3544A1" />
<rect x="100" y="50" width="10" height="10" fill="#3544A1" />
<rect x="20" y="60" width="10" height="10" fill="#5B6EE1" />
<rect x="40" y="60" width="10" height="10" fill="#5B6EE1" />
<rect x="50" y="60" width="10" height="30" fill="#3544A1" />
<rect x="60" y="60" width="10" height="10" fill="#5B6EE1" />
<rect x="70" y="60" width="10" height="10" fill="#3544A1" />
<rect x="80" y="60" width="10" height="10" fill="#5B6EE1" />
<rect x="90" y="60" width="10" height="10" fill="#3544A1" />
<rect x="100" y="60" width="10" height="10" fill="#5B6EE1" />
<rect x="20" y="70" width="10" height="10" fill="#3544A1" />
<rect x="40" y="70" width="10" height="10" fill="#3544A1" />
<rect x="60" y="70" width="10" height="10" fill="#3544A1" />
<rect x="70" y="70" width="10" height="10" fill="#5B6EE1" />
<rect x="80" y="70" width="10" height="10" fill="#3544A1" />
<rect x="90" y="70" width="10" height="30" fill="#5B6EE1" />
<rect x="100" y="70" width="10" height="10" fill="#3544A1" />
<rect x="120" y="70" width="10" height="10" fill="#3544A1" />
<rect x="20" y="80" width="10" height="10" fill="#5B6EE1" />
<rect x="40" y="80" width="10" height="10" fill="#5B6EE1" />
<rect x="60" y="80" width="10" height="10" fill="#5B6EE1" />
<rect x="70" y="80" width="10" height="10" fill="#3544A1" />
<rect x="80" y="80" width="10" height="10" fill="#5B6EE1" />
<rect x="100" y="80" width="10" height="10" fill="#5B6EE1" />
<rect x="120" y="80" width="10" height="20" fill="#5B6EE1" />
<rect x="20" y="90" width="10" height="10" fill="#3544A1" />
<rect x="40" y="90" width="10" height="10" fill="#3544A1" />
<rect x="50" y="90" width="10" height="10" fill="#5B6EE1" />
<rect x="60" y="90" width="10" height="10" fill="#3544A1" />
<rect x="70" y="90" width="10" height="10" fill="#5B6EE1" />
<rect x="80" y="90" width="10" height="10" fill="#3544A1" />
<rect x="100" y="90" width="10" height="10" fill="#3544A1" />
<rect x="130" y="90" width="50" height="10" fill="#5B6EE1" />
</svg>