<?xml version="1.0" encoding="UTF-8" ?>
<svg version="1.1" width="441" height="441" xmlns="http://www.w3.org/2000/svg" shape-rendering="crispEdges">
<rect x="0" y="42" width="189" height="84" fill="#B89232" />
<rect x="189" y="84" width="210" height="42" fill="#B89232" />
<rect x="0" y="126" width="42" height="252" fill="#B89232" />
<rect x="42" y="126" width="336" height="21" fill="#AEBDDC" />
<rect x="378" y="126" width="21" height="42" fill="#B89232" />
<rect x="42" y="147" width="21" height="189" fill="#AEBDDC" />
<rect x="63" y="147" width="315" height="21" fill="#CBDBFC" />
<rect x="63" y="168" width="147" height="42" fill="#CBDBFC" />
<rect x="210" y="168" width="231" height="126" fill="#E7B946" />
<rect x="63" y="210" width="42" height="63" fill="#CBDBFC" />
<rect x="105" y="210" width="105" height="231" fill="#E7B946" />
<rect x="63" y="273" width="21" height="21" fill="#CBDBFC" />
<rect x="84" y="273" width="21" height="168" fill="#E7B946" />
<rect x="63" y="294" width="21" height="147" fill="#E7B946" />
<rect x="210" y="294" width="210" height="63" fill="#E7B946" />
<rect x="42" y="336" width="21" height="105" fill="#E7B946" />
<rect x="210" y="357" width="189" height="21" fill="#E7B946" />
<rect x="0" y="378" width="21" height="21" fill="#B89232" />
<rect x="21" y="378" width="21" height="63" fill="#E7B946" />
<rect x="210" y="378" width="168" height="42" fill="#E7B946" />
<rect x="0" y="399" width="21" height="42" fill="#E7B946" />
<rect x="210" y="420" width="147" height="21" fill="#E7B946" />
</svg>